# Blender v3.1.2 OBJ File: 'BotTango Models.blend'
# www.blender.org
mtllib BotTango Neck 2.mtl
v -25.999969 278.586060 4.922204
v -25.999969 287.095093 4.922204
v -24.499969 277.086060 3.422204
v -24.499969 288.595093 3.422204
v -22.999969 278.586060 1.922204
v -22.999969 287.095093 1.922204
v -13.294693 278.586060 1.922204
v -13.294693 275.586060 4.922204
v -22.999969 275.586060 4.922204
v -12.263702 275.472839 4.922204
v -11.612564 278.401306 1.922204
v -10.010635 277.855896 1.922204
v -11.281891 275.138550 4.922204
v -8.565292 276.975708 1.922204
v -10.396027 274.599060 4.922204
v -7.345444 275.802856 1.922204
v -9.648376 273.880249 4.922204
v -6.409225 274.393188 1.922204
v -9.074570 273.016235 4.922204
v -8.701981 272.048279 4.922204
v -5.801315 272.813904 1.922204
v 26.000000 287.095093 4.922204
v 26.000000 278.586060 4.922204
v 24.500000 288.595093 3.422204
v 24.500000 277.086060 3.422204
v 23.000000 287.095093 1.922204
v 23.000000 278.586060 1.922204
v 13.294708 278.586060 1.922204
v 13.294708 275.586060 4.922204
v 23.000000 275.586060 4.922204
v 1.099991 270.239929 1.922203
v 2.102539 268.725586 1.922203
v 0.000015 270.095093 1.922203
v 0.714355 268.387817 1.922203
v -0.714325 268.387817 1.922203
v 3.371490 269.381958 1.922203
v 2.125015 270.664490 1.922203
v 4.449310 270.319763 1.922203
v 3.005219 271.339905 1.922203
v 5.274872 271.485779 1.922204
v 3.680634 272.220093 1.922204
v 5.801331 272.813904 1.922204
v 4.105194 273.245117 1.922204
v 6.409271 274.393188 1.922204
v 4.250000 274.345093 1.922204
v 4.105194 275.445129 1.922204
v 7.345459 275.802856 1.922204
v 3.680634 276.470093 1.922204
v 8.565308 276.975708 1.922204
v 3.005219 277.350342 1.922204
v 10.010681 277.855896 1.922204
v 2.125015 278.025757 1.922204
v 1.099991 278.450317 1.922204
v 0.000015 278.595093 1.922204
v 11.612579 278.401306 1.922204
v -1.099976 278.450317 1.922204
v -2.124985 278.025757 1.922204
v -3.005188 277.350342 1.922204
v -3.680588 276.470093 1.922204
v -4.105179 275.445129 1.922204
v -4.249985 274.345093 1.922204
v -4.105179 273.245117 1.922204
v -3.680588 272.220093 1.922204
v -5.274841 271.485779 1.922204
v -3.005188 271.339905 1.922203
v -4.449295 270.319763 1.922203
v -2.124985 270.664490 1.922203
v -3.371475 269.381958 1.922203
v -1.099976 270.239929 1.922203
v -2.102509 268.725586 1.922203
v 12.263733 275.472839 4.922204
v 11.281921 275.138550 4.922204
v 10.396057 274.599060 4.922204
v 9.648407 273.880249 4.922204
v 9.074585 273.016235 4.922204
v 8.701996 272.048279 4.922204
v -22.999969 290.095093 4.922204
v 23.000000 290.095093 4.922204
v -7.912262 270.056091 4.922204
v -6.673950 268.307068 4.922204
v -5.057220 266.900391 4.922203
v -3.153763 265.915771 4.922203
v -1.071503 265.409119 4.922203
v 1.071518 265.409119 4.922203
v 3.153793 265.915771 4.922203
v 5.057251 266.900391 4.922203
v 6.673981 268.307068 4.922204
v 7.912292 270.056091 4.922204
v -25.999969 287.095093 12.202204
v -24.499969 288.595093 20.982204
v -22.999969 290.095093 19.482204
v -25.999969 287.095093 19.482204
v -25.999969 278.586060 19.482203
v -25.999969 278.595093 12.202204
v -25.999969 278.739929 11.102222
v -25.999969 279.164490 10.077204
v -25.999969 282.845093 16.452204
v -25.999969 281.745117 16.307388
v -25.999969 280.720093 15.882812
v -25.999969 286.950317 13.302185
v -25.999969 286.525757 14.327205
v -25.999969 285.850342 15.207408
v -25.999969 284.970093 15.882812
v -25.999969 283.945129 16.307390
v -25.999969 279.839905 15.207408
v -25.999969 279.164490 14.327205
v -25.999969 278.739929 13.302185
v -25.999969 279.839905 9.197001
v -25.999969 280.720093 8.521596
v -25.999969 281.745117 8.097019
v -25.999969 282.845093 7.952204
v -25.999969 283.945129 8.097019
v -25.999969 284.970093 8.521596
v -25.999969 285.850342 9.197001
v -25.999969 286.525757 10.077204
v -25.999969 286.950317 11.102222
v -22.999969 275.586060 19.482203
v -24.499969 277.086060 20.982203
v -13.294693 275.586060 19.482203
v -8.701981 272.048279 19.482203
v -9.074570 273.016235 19.482203
v -9.648376 273.880249 19.482203
v -10.396027 274.599060 19.482203
v -11.281891 275.138550 19.482203
v -12.263702 275.472839 19.482203
v 8.701996 272.048279 19.482203
v 7.912292 270.056091 19.482203
v 6.673981 268.307068 19.482203
v 5.057251 266.900391 19.482203
v 3.153793 265.915771 19.482203
v 1.071518 265.409119 19.482203
v -1.071503 265.409119 19.482203
v -3.153763 265.915771 19.482203
v -5.057220 266.900391 19.482203
v -6.673950 268.307068 19.482203
v -7.912262 270.056091 19.482203
v -22.999969 278.586060 22.482203
v -22.999969 287.095093 22.482204
v -13.294693 278.586060 22.482203
v -5.801315 272.813904 22.482203
v -6.409225 274.393188 22.482203
v -7.345444 275.802856 22.482203
v -8.565292 276.975708 22.482203
v -10.010635 277.855896 22.482203
v -11.612564 278.401306 22.482203
v 23.000000 287.095093 22.482204
v 23.000000 278.586060 22.482203
v 24.500000 288.595093 20.982204
v 24.500000 277.086060 20.982203
v 26.000000 287.095093 19.482204
v 26.000000 278.586060 19.482203
v 23.000000 275.586060 19.482203
v 13.294708 275.586060 19.482203
v 13.294708 278.586060 22.482203
v 23.000000 290.095093 19.482204
v -5.274841 271.485779 22.482203
v -3.680588 272.220093 22.482203
v -4.105179 273.245117 22.482203
v -4.249985 274.345093 22.482203
v -4.105179 275.445129 22.482203
v -3.005188 271.339905 22.482203
v -4.449295 270.319763 22.482203
v -2.124985 270.664490 22.482203
v -3.371475 269.381958 22.482203
v -1.099976 270.239929 22.482203
v -2.102509 268.725586 22.482203
v 0.000015 270.095093 22.482203
v -0.714325 268.387817 22.482203
v 0.714355 268.387817 22.482203
v 2.102539 268.725586 22.482203
v 1.099991 270.239929 22.482203
v 3.371490 269.381958 22.482203
v 2.125015 270.664490 22.482203
v 4.449310 270.319763 22.482203
v 3.005219 271.339905 22.482203
v 5.274872 271.485779 22.482203
v 3.680634 272.220093 22.482203
v 5.801331 272.813904 22.482203
v 4.105194 273.245117 22.482203
v 6.409271 274.393188 22.482203
v 4.250000 274.345093 22.482203
v 4.105194 275.445129 22.482203
v 7.345459 275.802856 22.482203
v 3.680634 276.470093 22.482203
v 8.565308 276.975708 22.482203
v 3.005219 277.350342 22.482203
v 10.010681 277.855896 22.482203
v 2.125015 278.025757 22.482203
v 1.099991 278.450317 22.482203
v 11.612579 278.401306 22.482203
v 0.000015 278.595093 22.482203
v -1.099976 278.450317 22.482203
v -3.005188 277.350342 22.482203
v -2.124985 278.025757 22.482203
v -3.680588 276.470093 22.482203
v 9.074585 273.016235 19.482203
v 9.648407 273.880249 19.482203
v 10.396057 274.599060 19.482203
v 11.281921 275.138550 19.482203
v 12.263733 275.472839 19.482203
v 26.000000 287.095093 12.202204
v 26.000000 286.950317 11.102222
v 26.000000 286.525757 10.077204
v 26.000000 285.850342 9.197001
v 26.000000 284.970093 8.521596
v 26.000000 283.945129 8.097019
v 26.000000 282.845093 7.952204
v 26.000000 281.745117 8.097019
v 26.000000 280.720093 8.521596
v 26.000000 279.839905 9.197001
v 26.000000 279.164490 10.077204
v 26.000000 278.739929 11.102222
v 26.000000 278.595093 12.202204
v 26.000000 278.739929 13.302185
v 26.000000 279.164490 14.327205
v 26.000000 279.839905 15.207408
v 26.000000 280.720093 15.882812
v 26.000000 281.745117 16.307388
v 26.000000 282.845093 16.452204
v 26.000000 283.945129 16.307390
v 26.000000 284.970093 15.882812
v 26.000000 285.850342 15.207408
v 26.000000 286.525757 14.327205
v 26.000000 286.950317 13.302185
vn -0.7071 0.0000 -0.7071
vn 0.0000 -0.7071 -0.7071
vn -0.0774 -0.7050 -0.7050
vn -0.2286 -0.6714 -0.7050
vn -0.3689 -0.6057 -0.7050
vn -0.4916 -0.5112 -0.7050
vn -0.4915 -0.5113 -0.7050
vn -0.5908 -0.3924 -0.7050
vn -0.6619 -0.2548 -0.7050
vn 0.7071 0.0000 -0.7071
vn 0.0000 0.0000 -1.0000
vn 0.0774 -0.7050 -0.7050
vn 0.2286 -0.6714 -0.7050
vn 0.3689 -0.6057 -0.7050
vn 0.4915 -0.5113 -0.7050
vn 0.4916 -0.5113 -0.7050
vn 0.5908 -0.3924 -0.7050
vn 0.6619 -0.2548 -0.7050
vn 0.0000 0.7071 -0.7071
vn -0.6597 -0.2615 -0.7046
vn -0.5792 -0.4101 -0.7046
vn -0.5792 -0.4100 -0.7046
vn -0.4658 -0.5354 -0.7046
vn -0.3260 -0.6303 -0.7046
vn -0.1678 -0.6895 -0.7046
vn 0.0000 -0.7096 -0.7046
vn 0.1678 -0.6895 -0.7046
vn 0.3260 -0.6303 -0.7046
vn 0.4658 -0.5353 -0.7046
vn 0.5792 -0.4101 -0.7046
vn 0.5792 -0.4100 -0.7046
vn 0.6597 -0.2615 -0.7046
vn -0.7071 0.7071 0.0000
vn -1.0000 0.0000 0.0000
vn -0.7071 -0.7071 0.0000
vn 0.0000 -1.0000 0.0000
vn -0.9332 -0.3592 0.0000
vn -0.8330 -0.5532 0.0000
vn -0.6931 -0.7209 0.0000
vn -0.5201 -0.8541 0.0000
vn -0.3223 -0.9466 0.0000
vn -0.1092 -0.9940 0.0000
vn 0.9296 -0.3685 0.0000
vn 0.8162 -0.5778 0.0000
vn 0.6564 -0.7544 0.0000
vn 0.4594 -0.8882 0.0000
vn 0.2364 -0.9717 0.0000
vn -0.2364 -0.9717 0.0000
vn -0.4594 -0.8882 0.0000
vn -0.6564 -0.7544 0.0000
vn -0.8162 -0.5778 0.0000
vn -0.9296 -0.3685 0.0000
vn -0.7071 -0.0000 0.7071
vn 0.0000 -0.7071 0.7071
vn -0.6619 -0.2548 0.7050
vn -0.5908 -0.3924 0.7050
vn -0.4916 -0.5112 0.7050
vn -0.4915 -0.5113 0.7050
vn -0.3689 -0.6057 0.7050
vn -0.2286 -0.6714 0.7050
vn -0.0774 -0.7050 0.7050
vn 0.7071 0.0000 0.7071
vn 0.0000 0.7071 0.7071
vn 0.0000 0.0000 1.0000
vn 0.6619 -0.2548 0.7050
vn 0.5908 -0.3924 0.7050
vn 0.4915 -0.5113 0.7050
vn 0.4916 -0.5112 0.7050
vn 0.3689 -0.6057 0.7050
vn 0.2286 -0.6714 0.7050
vn 0.0774 -0.7050 0.7050
vn -0.6597 -0.2615 0.7046
vn -0.5792 -0.4100 0.7046
vn -0.4658 -0.5354 0.7046
vn -0.4658 -0.5353 0.7046
vn -0.3260 -0.6303 0.7046
vn -0.1678 -0.6895 0.7046
vn 0.0000 -0.7096 0.7046
vn 0.1678 -0.6895 0.7046
vn 0.3260 -0.6303 0.7046
vn 0.4658 -0.5354 0.7046
vn 0.4658 -0.5353 0.7046
vn 0.5792 -0.4100 0.7046
vn 0.5792 -0.4101 0.7046
vn 0.6597 -0.2615 0.7046
vn 1.0000 0.0000 0.0000
vn 0.7071 -0.7071 0.0000
vn 0.1092 -0.9940 0.0000
vn 0.3223 -0.9466 0.0000
vn 0.5201 -0.8541 0.0000
vn 0.6931 -0.7209 0.0000
vn 0.8330 -0.5532 0.0000
vn 0.9332 -0.3592 0.0000
vn 0.7071 0.7071 0.0000
vn 0.0000 1.0000 0.0000
vn 0.0000 -0.9915 0.1305
vn 0.0000 -0.9914 0.1305
vn 0.0000 -0.9914 -0.1305
vn 0.0000 -0.9915 -0.1305
vn 0.0000 -0.9239 -0.3827
vn 0.0000 -0.7933 -0.6088
vn 0.0000 -0.7934 -0.6088
vn 0.0000 -0.6087 -0.7934
vn 0.0000 -0.6088 -0.7934
vn 0.0000 -0.3827 -0.9239
vn 0.0000 -0.1305 -0.9914
vn 0.0000 0.1305 -0.9914
vn 0.0000 0.3827 -0.9239
vn 0.0000 0.6088 -0.7933
vn 0.0000 0.7933 -0.6088
vn 0.0000 0.7934 -0.6088
vn 0.0000 0.9239 -0.3827
vn 0.0000 0.9914 -0.1305
vn 0.0000 0.9914 0.1305
vn 0.0000 0.9239 0.3827
vn 0.0000 0.7934 0.6088
vn 0.0000 0.7933 0.6088
vn 0.0000 0.6088 0.7933
vn 0.0000 0.3827 0.9239
vn 0.0000 0.1305 0.9914
vn 0.0000 -0.1305 0.9914
vn 0.0000 -0.3827 0.9239
vn 0.0000 -0.6088 0.7934
vn 0.0000 -0.6087 0.7934
vn 0.0000 -0.7934 0.6088
vn 0.0000 -0.7933 0.6088
vn 0.0000 -0.9239 0.3827
vn 0.1305 0.9914 0.0000
vn -0.1305 0.9914 0.0000
vn -0.3827 0.9239 0.0000
vn -0.6088 0.7933 0.0000
vn -0.7933 0.6088 0.0000
vn -0.9239 0.3827 0.0000
vn -0.9914 0.1305 0.0000
vn -0.9914 -0.1305 0.0000
vn -0.9239 -0.3827 0.0000
vn -0.7934 -0.6087 0.0000
vn -0.6088 -0.7933 0.0000
vn -0.3827 -0.9239 0.0000
vn -0.1305 -0.9914 0.0000
vn 0.1305 -0.9914 0.0000
vn 0.3827 -0.9239 0.0000
vn 0.6088 -0.7933 0.0000
vn 0.7934 -0.6087 0.0000
vn 0.9239 -0.3827 0.0000
vn 0.9914 -0.1305 0.0000
vn 0.9914 0.1305 0.0000
vn 0.9239 0.3827 0.0000
vn 0.7933 0.6088 0.0000
vn 0.6088 0.7933 0.0000
vn 0.3827 0.9239 0.0000
usemtl None
s off
f 1//1 2//1 3//1
f 3//1 2//1 4//1
f 3//1 4//1 5//1
f 5//1 4//1 6//1
f 5//2 7//2 3//2
f 3//2 7//2 8//2
f 3//2 8//2 9//2
f 8//3 7//3 10//3
f 10//3 7//3 11//3
f 10//4 11//4 12//4
f 10//4 12//4 13//4
f 13//5 12//5 14//5
f 13//5 14//5 15//5
f 15//6 14//6 16//6
f 15//7 16//7 17//7
f 17//8 16//8 18//8
f 17//8 18//8 19//8
f 19//9 18//9 20//9
f 20//9 18//9 21//9
f 22//10 23//10 24//10
f 24//10 23//10 25//10
f 24//10 25//10 26//10
f 26//10 25//10 27//10
f 27//2 25//2 28//2
f 28//2 25//2 29//2
f 29//2 25//2 30//2
f 31//11 32//11 33//11
f 33//11 32//11 34//11
f 33//11 34//11 35//11
f 32//11 31//11 36//11
f 36//11 31//11 37//11
f 36//11 37//11 38//11
f 38//11 37//11 39//11
f 38//11 39//11 40//11
f 40//11 39//11 41//11
f 40//11 41//11 42//11
f 42//11 41//11 43//11
f 42//11 43//11 44//11
f 44//11 43//11 45//11
f 44//11 45//11 46//11
f 44//11 46//11 47//11
f 47//11 46//11 48//11
f 47//11 48//11 49//11
f 49//11 48//11 50//11
f 49//11 50//11 51//11
f 51//11 50//11 52//11
f 51//11 52//11 53//11
f 54//11 26//11 53//11
f 53//11 26//11 55//11
f 53//11 55//11 51//11
f 26//11 54//11 6//11
f 6//11 54//11 56//11
f 6//11 56//11 11//11
f 11//11 56//11 12//11
f 12//11 56//11 57//11
f 12//11 57//11 58//11
f 12//11 58//11 14//11
f 14//11 58//11 59//11
f 14//11 59//11 16//11
f 16//11 59//11 60//11
f 16//11 60//11 18//11
f 18//11 60//11 61//11
f 18//11 61//11 62//11
f 18//11 62//11 21//11
f 21//11 62//11 63//11
f 21//11 63//11 64//11
f 64//11 63//11 65//11
f 64//11 65//11 66//11
f 66//11 65//11 67//11
f 66//11 67//11 68//11
f 68//11 67//11 69//11
f 68//11 69//11 70//11
f 70//11 69//11 33//11
f 70//11 33//11 35//11
f 11//11 7//11 6//11
f 6//11 7//11 5//11
f 27//11 28//11 26//11
f 26//11 28//11 55//11
f 28//12 29//12 55//12
f 55//12 29//12 71//12
f 55//13 71//13 72//13
f 55//13 72//13 51//13
f 51//14 72//14 73//14
f 51//14 73//14 49//14
f 49//15 73//15 74//15
f 49//16 74//16 47//16
f 47//17 74//17 75//17
f 47//17 75//17 44//17
f 44//18 75//18 42//18
f 42//18 75//18 76//18
f 77//19 78//19 4//19
f 4//19 78//19 24//19
f 4//19 24//19 6//19
f 6//19 24//19 26//19
f 20//20 21//20 79//20
f 79//20 21//20 64//20
f 79//21 64//21 66//21
f 79//22 66//22 80//22
f 80//23 66//23 68//23
f 80//23 68//23 81//23
f 81//24 68//24 70//24
f 81//24 70//24 82//24
f 82//25 70//25 35//25
f 82//25 35//25 83//25
f 83//26 35//26 34//26
f 83//26 34//26 84//26
f 84//27 34//27 32//27
f 84//27 32//27 85//27
f 85//28 32//28 36//28
f 85//28 36//28 86//28
f 86//29 36//29 38//29
f 86//29 38//29 87//29
f 87//30 38//30 40//30
f 87//31 40//31 88//31
f 88//32 40//32 76//32
f 76//32 40//32 42//32
f 2//33 89//33 4//33
f 4//33 89//33 90//33
f 4//33 90//33 91//33
f 89//33 92//33 90//33
f 91//33 77//33 4//33
f 93//34 94//34 1//34
f 1//34 94//34 95//34
f 1//34 95//34 96//34
f 92//34 97//34 93//34
f 93//34 97//34 98//34
f 93//34 98//34 99//34
f 89//34 100//34 92//34
f 92//34 100//34 101//34
f 92//34 101//34 102//34
f 102//34 103//34 92//34
f 92//34 103//34 104//34
f 92//34 104//34 97//34
f 99//34 105//34 93//34
f 93//34 105//34 106//34
f 93//34 106//34 107//34
f 107//34 94//34 93//34
f 96//34 108//34 1//34
f 1//34 108//34 109//34
f 1//34 109//34 110//34
f 110//34 111//34 1//34
f 1//34 111//34 2//34
f 2//34 111//34 112//34
f 2//34 112//34 113//34
f 113//34 114//34 2//34
f 2//34 114//34 115//34
f 2//34 115//34 116//34
f 116//34 89//34 2//34
f 9//35 117//35 3//35
f 3//35 117//35 118//35
f 3//35 118//35 93//35
f 93//35 1//35 3//35
f 119//36 117//36 8//36
f 8//36 117//36 9//36
f 20//37 120//37 19//37
f 19//37 120//37 121//37
f 19//38 121//38 122//38
f 19//38 122//38 17//38
f 17//39 122//39 123//39
f 17//39 123//39 15//39
f 15//40 123//40 124//40
f 15//40 124//40 13//40
f 13//41 124//41 125//41
f 13//41 125//41 10//41
f 10//42 125//42 8//42
f 8//42 125//42 119//42
f 76//43 126//43 88//43
f 88//43 126//43 127//43
f 88//44 127//44 128//44
f 88//44 128//44 87//44
f 87//45 128//45 129//45
f 87//45 129//45 86//45
f 86//46 129//46 130//46
f 86//46 130//46 85//46
f 85//47 130//47 131//47
f 85//47 131//47 84//47
f 84//36 131//36 132//36
f 84//36 132//36 83//36
f 83//48 132//48 133//48
f 83//48 133//48 82//48
f 82//49 133//49 134//49
f 82//49 134//49 81//49
f 81//50 134//50 135//50
f 81//50 135//50 80//50
f 80//51 135//51 136//51
f 80//51 136//51 79//51
f 79//52 136//52 20//52
f 20//52 136//52 120//52
f 137//53 138//53 118//53
f 118//53 138//53 90//53
f 118//53 90//53 93//53
f 93//53 90//53 92//53
f 117//54 119//54 118//54
f 118//54 119//54 139//54
f 118//54 139//54 137//54
f 120//55 140//55 121//55
f 121//55 140//55 141//55
f 121//56 141//56 142//56
f 121//56 142//56 122//56
f 122//57 142//57 143//57
f 122//58 143//58 123//58
f 123//59 143//59 144//59
f 123//59 144//59 124//59
f 124//60 144//60 145//60
f 124//60 145//60 125//60
f 125//61 145//61 119//61
f 119//61 145//61 139//61
f 146//62 147//62 148//62
f 148//62 147//62 149//62
f 148//62 149//62 150//62
f 150//62 149//62 151//62
f 152//54 149//54 153//54
f 153//54 149//54 154//54
f 154//54 149//54 147//54
f 138//63 146//63 90//63
f 90//63 146//63 148//63
f 90//63 148//63 91//63
f 91//63 148//63 155//63
f 156//64 157//64 140//64
f 140//64 157//64 158//64
f 140//64 158//64 141//64
f 141//64 158//64 159//64
f 141//64 159//64 160//64
f 157//64 156//64 161//64
f 161//64 156//64 162//64
f 161//64 162//64 163//64
f 163//64 162//64 164//64
f 163//64 164//64 165//64
f 165//64 164//64 166//64
f 165//64 166//64 167//64
f 167//64 166//64 168//64
f 167//64 168//64 169//64
f 169//64 170//64 167//64
f 167//64 170//64 171//64
f 171//64 170//64 172//64
f 171//64 172//64 173//64
f 173//64 172//64 174//64
f 173//64 174//64 175//64
f 175//64 174//64 176//64
f 175//64 176//64 177//64
f 177//64 176//64 178//64
f 177//64 178//64 179//64
f 179//64 178//64 180//64
f 179//64 180//64 181//64
f 181//64 180//64 182//64
f 182//64 180//64 183//64
f 182//64 183//64 184//64
f 184//64 183//64 185//64
f 184//64 185//64 186//64
f 186//64 185//64 187//64
f 186//64 187//64 188//64
f 188//64 187//64 189//64
f 189//64 187//64 190//64
f 189//64 190//64 146//64
f 146//64 190//64 154//64
f 146//64 154//64 147//64
f 189//64 146//64 191//64
f 191//64 146//64 138//64
f 191//64 138//64 192//64
f 192//64 138//64 145//64
f 192//64 145//64 144//64
f 137//64 139//64 138//64
f 138//64 139//64 145//64
f 143//64 193//64 144//64
f 144//64 193//64 194//64
f 144//64 194//64 192//64
f 193//64 143//64 195//64
f 195//64 143//64 142//64
f 195//64 142//64 160//64
f 160//64 142//64 141//64
f 178//65 126//65 180//65
f 180//65 126//65 196//65
f 180//66 196//66 197//66
f 180//66 197//66 183//66
f 183//67 197//67 198//67
f 183//68 198//68 185//68
f 185//69 198//69 199//69
f 185//69 199//69 187//69
f 187//70 199//70 200//70
f 187//70 200//70 190//70
f 190//71 200//71 154//71
f 154//71 200//71 153//71
f 140//72 120//72 156//72
f 156//72 120//72 136//72
f 156//73 136//73 135//73
f 156//73 135//73 162//73
f 162//74 135//74 134//74
f 162//75 134//75 164//75
f 164//76 134//76 133//76
f 164//76 133//76 166//76
f 166//77 133//77 132//77
f 166//77 132//77 168//77
f 168//78 132//78 131//78
f 168//78 131//78 169//78
f 169//79 131//79 130//79
f 169//79 130//79 170//79
f 170//80 130//80 129//80
f 170//80 129//80 172//80
f 172//81 129//81 128//81
f 172//82 128//82 174//82
f 174//83 128//83 127//83
f 174//84 127//84 176//84
f 176//85 127//85 178//85
f 178//85 127//85 126//85
f 201//86 202//86 22//86
f 22//86 202//86 203//86
f 22//86 203//86 204//86
f 204//86 205//86 22//86
f 22//86 205//86 206//86
f 22//86 206//86 207//86
f 22//86 207//86 23//86
f 23//86 207//86 208//86
f 23//86 208//86 209//86
f 209//86 210//86 23//86
f 23//86 210//86 211//86
f 23//86 211//86 212//86
f 212//86 213//86 23//86
f 23//86 213//86 151//86
f 151//86 213//86 214//86
f 151//86 214//86 215//86
f 215//86 216//86 151//86
f 151//86 216//86 217//86
f 151//86 217//86 218//86
f 218//86 219//86 151//86
f 151//86 219//86 150//86
f 150//86 219//86 220//86
f 150//86 220//86 221//86
f 221//86 222//86 150//86
f 150//86 222//86 223//86
f 150//86 223//86 224//86
f 224//86 201//86 150//86
f 23//87 151//87 25//87
f 25//87 151//87 149//87
f 25//87 149//87 152//87
f 152//87 30//87 25//87
f 152//36 153//36 30//36
f 30//36 153//36 29//36
f 29//88 153//88 71//88
f 71//88 153//88 200//88
f 71//89 200//89 199//89
f 71//89 199//89 72//89
f 72//90 199//90 198//90
f 72//90 198//90 73//90
f 73//91 198//91 197//91
f 73//91 197//91 74//91
f 74//92 197//92 196//92
f 74//92 196//92 75//92
f 75//93 196//93 76//93
f 76//93 196//93 126//93
f 78//94 155//94 24//94
f 24//94 155//94 148//94
f 24//94 148//94 201//94
f 201//94 148//94 150//94
f 201//94 22//94 24//94
f 91//95 155//95 77//95
f 77//95 155//95 78//95
f 116//96 202//96 89//96
f 89//97 202//97 201//97
f 89//98 201//98 100//98
f 100//99 201//99 224//99
f 100//100 224//100 101//100
f 101//100 224//100 223//100
f 101//101 223//101 102//101
f 102//102 223//102 222//102
f 102//103 222//103 103//103
f 103//104 222//104 221//104
f 103//105 221//105 104//105
f 104//105 221//105 220//105
f 104//106 220//106 97//106
f 97//106 220//106 219//106
f 97//107 219//107 98//107
f 98//107 219//107 218//107
f 98//108 218//108 99//108
f 99//108 218//108 217//108
f 99//109 217//109 105//109
f 105//109 217//109 216//109
f 105//110 216//110 106//110
f 106//111 216//111 215//111
f 106//112 215//112 107//112
f 107//112 215//112 214//112
f 107//113 214//113 94//113
f 94//113 214//113 213//113
f 94//114 213//114 95//114
f 95//114 213//114 212//114
f 95//115 212//115 96//115
f 96//115 212//115 211//115
f 96//116 211//116 108//116
f 108//117 211//117 210//117
f 108//118 210//118 109//118
f 109//118 210//118 209//118
f 109//119 209//119 110//119
f 110//119 209//119 208//119
f 110//120 208//120 111//120
f 111//120 208//120 207//120
f 111//121 207//121 112//121
f 112//121 207//121 206//121
f 112//122 206//122 113//122
f 113//122 206//122 205//122
f 113//123 205//123 114//123
f 114//124 205//124 204//124
f 114//125 204//125 115//125
f 115//126 204//126 203//126
f 115//127 203//127 116//127
f 116//127 203//127 202//127
f 69//128 165//128 33//128
f 33//128 165//128 167//128
f 33//129 167//129 31//129
f 31//129 167//129 171//129
f 31//130 171//130 37//130
f 37//130 171//130 173//130
f 37//131 173//131 39//131
f 39//131 173//131 175//131
f 39//132 175//132 41//132
f 41//132 175//132 177//132
f 41//133 177//133 43//133
f 43//133 177//133 179//133
f 43//134 179//134 45//134
f 45//134 179//134 181//134
f 45//135 181//135 46//135
f 46//135 181//135 182//135
f 46//136 182//136 48//136
f 48//136 182//136 184//136
f 48//137 184//137 50//137
f 50//137 184//137 186//137
f 50//138 186//138 52//138
f 52//138 186//138 188//138
f 52//139 188//139 53//139
f 53//139 188//139 189//139
f 53//140 189//140 54//140
f 54//140 189//140 191//140
f 54//141 191//141 56//141
f 56//141 191//141 192//141
f 56//142 192//142 57//142
f 57//142 192//142 194//142
f 57//143 194//143 58//143
f 58//143 194//143 193//143
f 58//144 193//144 59//144
f 59//144 193//144 195//144
f 59//145 195//145 60//145
f 60//145 195//145 160//145
f 60//146 160//146 61//146
f 61//146 160//146 159//146
f 61//147 159//147 62//147
f 62//147 159//147 158//147
f 62//148 158//148 63//148
f 63//148 158//148 157//148
f 63//149 157//149 65//149
f 65//149 157//149 161//149
f 65//150 161//150 67//150
f 67//150 161//150 163//150
f 67//151 163//151 69//151
f 69//151 163//151 165//151
